<svg xmlns="http://www.w3.org/2000/svg" xmlns:xlink="http://www.w3.org/1999/xlink" viewBox="0 0 64.84 50"><defs><style>.cls-1{fill:none;}.cls-2{clip-path:url(#clip-path);}.cls-3{fill:#6aac4b;}.cls-4{fill:#fff;}</style><clipPath id="clip-path" transform="translate(-0.26)"><rect class="cls-1" width="65.17" height="50"/></clipPath></defs><title>3</title><g id="Layer_2" data-name="Layer 2"><g id="Layer_1-2" data-name="Layer 1"><g class="cls-2"><rect class="cls-3" width="64.84" height="50"/></g><path class="cls-4" d="M1.73,47.79V2.21a.58.58,0,0,1,.58-.58H63.07a.58.58,0,0,1,.58.58V47.79a.58.58,0,0,1-.58.58H2.31a.58.58,0,0,1-.58-.58Zm1.15-45V47.21H62.49V2.79Zm0,0" transform="translate(-0.26)"/><path class="cls-4" d="M32.11,47.79V2.21a.58.58,0,1,1,1.15,0V47.79a.58.58,0,0,1-1.15,0Zm0,0" transform="translate(-0.26)"/><path class="cls-4" d="M24.52,25a8.17,8.17,0,1,1,8.17,8.17A8.18,8.18,0,0,1,24.52,25Zm15.19,0a7,7,0,1,0-7,7,7,7,0,0,0,7-7Zm0,0" transform="translate(-0.26)"/><path class="cls-4" d="M47,25a8.18,8.18,0,0,1,4.21-7.14.58.58,0,0,1,.56,1,7,7,0,0,0,0,12.28.58.58,0,0,1-.56,1A8.18,8.18,0,0,1,47,25Zm0,0" transform="translate(-0.26)"/><path class="cls-4" d="M13.13,31.64a.58.58,0,0,1,.3-.5,7,7,0,0,0,0-12.28.58.58,0,0,1,.56-1,8.17,8.17,0,0,1,0,14.29.58.58,0,0,1-.86-.5Zm0,0" transform="translate(-0.26)"/><path class="cls-4" d="M51.1,36.39V13.61a.58.58,0,0,1,.58-.58H63.07a.58.58,0,0,1,0,1.15H52.25V35.82H63.07a.58.58,0,1,1,0,1.15H51.68a.58.58,0,0,1-.58-.58Zm0,0" transform="translate(-0.26)"/><path class="cls-4" d="M57.79,32.6V17.41a.58.58,0,0,1,.58-.58h4.71a.58.58,0,1,1,0,1.15H58.94V32h4.13a.58.58,0,1,1,0,1.15H58.36a.58.58,0,0,1-.58-.58Zm0,0" transform="translate(-0.26)"/><path class="cls-4" d="M1.73,32.6A.57.57,0,0,1,2.31,32H6.44V18H2.31a.58.58,0,0,1,0-1.15H7a.58.58,0,0,1,.58.58V32.6a.58.58,0,0,1-.58.58H2.31a.58.58,0,0,1-.58-.58Zm0,0" transform="translate(-0.26)"/><path class="cls-4" d="M1.73,36.39a.58.58,0,0,1,.58-.58H13.13V14.18H2.31a.58.58,0,0,1,0-1.15H13.7a.57.57,0,0,1,.58.58V36.39a.58.58,0,0,1-.58.58H2.31a.58.58,0,0,1-.58-.58Zm0,0" transform="translate(-0.26)"/></g></g></svg>