<svg xmlns="http://www.w3.org/2000/svg" xmlns:xlink="http://www.w3.org/1999/xlink" viewBox="0 0 50 50"><defs><style>.cls-1{fill:url(#linear-gradient);}.cls-2{fill:#fff;}</style><linearGradient id="linear-gradient" x1="25" x2="25" y2="50" gradientUnits="userSpaceOnUse"><stop offset="0" stop-color="#e17e22"/><stop offset="1" stop-color="#bd2a1e"/></linearGradient></defs><title>1</title><g id="Layer_2" data-name="Layer 2"><g id="Layer_1-2" data-name="Layer 1"><rect class="cls-1" width="50" height="50" rx="4.29" ry="4.29"/><path class="cls-2" d="M25,34.4a3.72,3.72,0,0,0,0,7.45,3.73,3.73,0,0,0,0-7.45Zm0,0"/><path class="cls-2" d="M24.11,8.26a4.05,4.05,0,0,0-2.88,4.07c.09,1.18.16,2.37.25,3.55.25,4.48.51,8.88.76,13.36A2.73,2.73,0,0,0,25,31.85a2.78,2.78,0,0,0,2.79-2.71c0-.92,0-1.77.09-2.71.16-2.87.34-5.75.51-8.63.09-1.86.25-3.72.34-5.59a4.6,4.6,0,0,0-.34-1.86,3.73,3.73,0,0,0-4.31-2.1Zm0,0"/></g></g></svg>