<svg xmlns="http://www.w3.org/2000/svg" xmlns:xlink="http://www.w3.org/1999/xlink" viewBox="0 0 50 50"><defs><style>.cls-1{fill:url(#linear-gradient);}.cls-2{fill:#fff;}</style><linearGradient id="linear-gradient" x1="25" x2="25" y2="50" gradientUnits="userSpaceOnUse"><stop offset="0" stop-color="#8cc927"/><stop offset="1" stop-color="#6b991e"/></linearGradient></defs><title>2</title><g id="Layer_2" data-name="Layer 2"><g id="Layer_1-2" data-name="Layer 1"><rect class="cls-1" width="50" height="50" rx="4.29" ry="4.29"/><path class="cls-2" d="M39,11.48A81.73,81.73,0,0,0,20.32,27.55l-7-5.46a24.15,24.15,0,0,0-3.91,3.36L22.14,38.37a.47.47,0,0,0,.37.15h.09A.5.5,0,0,0,23,38.2C25,33,31.77,22,40.4,14.07a.49.49,0,0,0,.12-.57,13.32,13.32,0,0,0-1.51-2Zm0,0"/></g></g></svg>