<svg xmlns="http://www.w3.org/2000/svg" viewBox="0 0 72.48 45.26"><defs><style>.cls-1{fill:#85c341;}</style></defs><title>x2</title><g id="Layer_2" data-name="Layer 2"><g id="Layer_1-2" data-name="Layer 1"><path class="cls-1" d="M16.64,22.89,24.42,11.6h8.22L20.78,28.05,33.15,45.26H24.74l-8.29-12-8.22,12H0L12.3,28.11.45,11.6H8.86Z"/><path class="cls-1" d="M39.46,37.49,54.31,25.31C59.86,20.72,62,18.3,62,14.6s-2.49-5.8-6-5.8-5.8,1.91-9.12,6L40,9.24C44.43,3.25,48.7,0,56.67,0,65.92,0,72,5.42,72,13.77v.13c0,7.46-3.83,11.16-11.73,17.28L53,36.78H72.48v8.48h-33Z"/></g></g></svg>