<svg xmlns="http://www.w3.org/2000/svg" width="39" height="50" viewBox="0 0 39 50">
  <defs>
    <style>
      .cls-1 {
        fill: #f19020;
        fill-rule: evenodd;
      }
    </style>
  </defs>
  <path id="_1" data-name="1" class="cls-1" d="M383.083,470.263l1.127,0.31c0.621,0.171,1.894.394,2.823,0.573a15.885,15.885,0,0,1,8.227,4.377,1.81,1.81,0,0,0,2.447,0,16.06,16.06,0,0,1,8.26-4.381c0.933-.179,2.2-0.4,2.823-0.573l1.131-.31c2.88-1.054,6-2.4,6.079-6.394V431.256c0-.935-0.6-1.209-1.418-0.731a12.977,12.977,0,0,1-16.22-2.645,12.455,12.455,0,0,1-1.022-1.312,0.907,0.907,0,0,0-1.684,0,12.986,12.986,0,0,1-17.243,3.957c-0.815-.478-1.413-0.2-1.413.731v32.613c0.077,3.988,3.2,5.34,6.083,6.394h0Zm-2.751-25.626a1.705,1.705,0,0,1,1.721-1.689h28.9a1.7,1.7,0,0,1,1.716,1.689v17.785c-0.059,3.376-2.648,4.517-5.04,5.4l-0.933.262c-0.517.147-1.705,0.346-2.629,0.545-1.935.417-3.938,0.417-6.358,2.612a1.8,1.8,0,0,1-2.439-.008c-2.4-2.191-4.4-2.187-6.329-2.6-0.929-.2-2.112-0.4-2.629-0.545s-0.937-.262-0.937-0.262c-2.387-.887-4.976-2.028-5.041-5.4V444.637Zm0,0,18.977,22.126H394.88V454.326l0.043-2.043L395,450.048q-1.1,1.132-1.534,1.485l-2.408,1.984-2.135-2.734,6.75-5.513h3.641v21.493Z" transform="translate(-377 -426)"/>
</svg>
